<?xml version="1.0" encoding="iso-8859-1"?>
<!-- Generator: Adobe Illustrator 19.0.0, SVG Export Plug-In . SVG Version: 6.00 Build 0)  -->
<svg version="1.1" id="Capa_1" xmlns="http://www.w3.org/2000/svg" xmlns:xlink="http://www.w3.org/1999/xlink" x="0px" y="0px"
	 viewBox="0 0 512 512" style="enable-background:new 0 0 512 512;" xml:space="preserve">
<g>
	<g>
		<path d="M277.211,407.668l8.495-8.495c5.86-5.858,5.86-15.356,0.002-21.213c-5.857-5.857-15.355-5.857-21.213,0L256,386.455
			l-8.495-8.495c-5.857-5.857-15.355-5.857-21.213,0c-5.858,5.857-5.858,15.355,0,21.213l8.495,8.495l-8.495,8.495
			c-5.858,5.857-5.858,15.355,0,21.213c2.929,2.929,6.768,4.394,10.606,4.394s7.678-1.465,10.606-4.394l8.495-8.495l8.495,8.495
			c2.929,2.929,6.768,4.394,10.606,4.394c3.838,0,7.678-1.465,10.606-4.394c5.858-5.857,5.858-15.355,0-21.213L277.211,407.668z"/>
	</g>
</g>
<g>
	<g>
		<path d="M256,303.336c-57.529,0-104.332,46.803-104.332,104.332S198.471,512,256,512s104.332-46.803,104.332-104.332
			S313.529,303.336,256,303.336z M256,482c-40.987,0-74.332-33.345-74.332-74.332s33.345-74.332,74.332-74.332
			s74.332,33.345,74.332,74.332S296.987,482,256,482z"/>
	</g>
</g>
<g>
	<g>
		<path d="M407.668,154.029c-57.529,0-104.332,46.803-104.332,104.332c0,57.529,46.803,104.332,104.332,104.332
			S512,315.891,512,258.361C512,200.833,465.197,154.029,407.668,154.029z M407.668,332.693c-40.987,0-74.332-33.345-74.332-74.332
			s33.345-74.332,74.332-74.332S482,217.375,482,258.361C482,299.349,448.655,332.693,407.668,332.693z"/>
	</g>
</g>
<g>
	<g>
		<path d="M256,0c-57.529,0-104.332,46.803-104.332,104.332S198.471,208.664,256,208.664s104.332-46.803,104.332-104.332
			S313.529,0,256,0z M256,178.664c-40.987,0-74.332-33.345-74.332-74.332S215.013,30,256,30s74.332,33.345,74.332,74.332
			S296.987,178.664,256,178.664z"/>
	</g>
</g>
<g>
	<g>
		<path d="M437.474,228.557c-7.961-7.962-18.547-12.347-29.806-12.347c-11.259,0-21.845,4.385-29.805,12.346
			c-7.962,7.961-12.346,18.546-12.346,29.805c0,11.259,4.384,21.845,12.345,29.805c7.961,7.962,18.547,12.346,29.806,12.346
			c11.259,0,21.845-4.384,29.805-12.345c7.962-7.961,12.346-18.547,12.346-29.806C449.819,247.102,445.435,236.517,437.474,228.557z
			 M416.259,266.953c-2.294,2.295-5.346,3.559-8.591,3.559s-6.297-1.264-8.592-3.56c-2.295-2.294-3.559-5.346-3.559-8.591
			s1.264-6.296,3.559-8.591c0,0,0,0,0.001-0.001c2.294-2.295,5.346-3.559,8.591-3.559s6.297,1.264,8.592,3.56
			c2.295,2.295,3.559,5.346,3.559,8.591S418.555,264.658,416.259,266.953z"/>
	</g>
</g>
<g>
	<g>
		<path d="M129.468,220.716h-48.74c-8.284,0-15,6.716-15,15v45.291c0,8.284,6.716,15,15,15h48.74c8.284,0,15-6.716,15-15v-45.291
			C144.468,227.432,137.752,220.716,129.468,220.716z M114.468,266.007h-18.74v-15.291h18.74V266.007z"/>
	</g>
</g>
<g>
	<g>
		<path d="M104.332,154.029C46.803,154.029,0,200.833,0,258.361c0,57.529,46.803,104.332,104.332,104.332
			c57.529,0,104.332-46.802,104.332-104.332C208.664,200.832,161.861,154.029,104.332,154.029z M104.332,332.693
			C63.345,332.693,30,299.349,30,258.361c0-40.987,33.345-74.332,74.332-74.332s74.332,33.345,74.332,74.332
			C178.664,299.349,145.319,332.693,104.332,332.693z"/>
	</g>
</g>
<g>
	<g>
		<path d="M302.809,116.933l-33.943-56.627c-2.71-4.521-7.594-7.288-12.865-7.288s-10.155,2.767-12.865,7.288l-33.943,56.627
			c-2.778,4.634-2.85,10.404-0.187,15.105c2.662,4.701,7.647,7.607,13.051,7.607h67.887c5.403,0,10.389-2.906,13.052-7.607
			C305.659,127.337,305.588,121.567,302.809,116.933z M248.536,109.645L256,97.193l7.464,12.452H248.536z"/>
	</g>
</g>
<g>
</g>
<g>
</g>
<g>
</g>
<g>
</g>
<g>
</g>
<g>
</g>
<g>
</g>
<g>
</g>
<g>
</g>
<g>
</g>
<g>
</g>
<g>
</g>
<g>
</g>
<g>
</g>
<g>
</g>
</svg>
